<svg width="27" height="28" viewBox="0 0 27 28" fill="none" xmlns="http://www.w3.org/2000/svg">
<path d="M13.4999 9.45886C11.0885 9.45886 9.12065 11.4996 9.12065 14.0003C9.12065 16.5009 11.0885 18.5417 13.4999 18.5417C15.9112 18.5417 17.8791 16.5009 17.8791 14.0003C17.8791 11.4996 15.9112 9.45886 13.4999 9.45886ZM26.6342 14.0003C26.6342 12.1197 26.6507 10.2561 26.5488 8.37887C26.447 6.19844 25.9673 4.26332 24.4298 2.66889C22.8891 1.07104 21.0263 0.577043 18.9238 0.471429C17.1103 0.365815 15.3133 0.382849 13.5032 0.382849C11.6897 0.382849 9.89268 0.365815 8.08252 0.471429C5.97997 0.577043 4.11395 1.07445 2.57646 2.66889C1.03569 4.26673 0.559329 6.19844 0.457487 8.37887C0.355645 10.2595 0.372071 12.1231 0.372071 14.0003C0.372071 15.8775 0.355645 17.7445 0.457487 19.6217C0.559329 21.8021 1.03897 23.7372 2.57646 25.3316C4.11724 26.9295 5.97997 27.4235 8.08252 27.5291C9.89596 27.6347 11.693 27.6177 13.5032 27.6177C15.3166 27.6177 17.1136 27.6347 18.9238 27.5291C21.0263 27.4235 22.8924 26.9261 24.4298 25.3316C25.9706 23.7338 26.447 21.8021 26.5488 19.6217C26.6539 17.7445 26.6342 15.8809 26.6342 14.0003V14.0003ZM13.4999 20.9878C9.77113 20.9878 6.76185 17.8671 6.76185 14.0003C6.76185 10.1334 9.77113 7.01269 13.4999 7.01269C17.2286 7.01269 20.2379 10.1334 20.2379 14.0003C20.2379 17.8671 17.2286 20.9878 13.4999 20.9878ZM20.5138 8.35842C19.6433 8.35842 18.9402 7.62935 18.9402 6.72651C18.9402 5.82368 19.6433 5.09461 20.5138 5.09461C21.3844 5.09461 22.0875 5.82368 22.0875 6.72651C22.0877 6.9409 22.0472 7.15322 21.9682 7.35134C21.8892 7.54945 21.7733 7.72946 21.6271 7.88105C21.481 8.03264 21.3074 8.15284 21.1164 8.23475C20.9253 8.31667 20.7206 8.35869 20.5138 8.35842V8.35842Z" fill="white"/>
</svg>
