<svg width="28" height="28" viewBox="0 0 28 28" fill="none" xmlns="http://www.w3.org/2000/svg">
<path d="M13.2985 0.00407432C11.0515 0.0311993 6.22058 0.400449 3.51858 2.87932C1.5087 4.87082 0.806953 7.8152 0.724703 11.4561C0.656453 15.0838 0.574203 21.8966 7.14108 23.7516V26.5769C7.14108 26.5769 7.09995 27.7074 7.8472 27.9393C8.7677 28.2307 9.29183 27.3609 10.1668 26.4264L11.7987 24.5811C16.2918 24.9547 19.7332 24.0937 20.1296 23.9659C21.0413 23.6746 26.1767 23.0183 27.0158 16.2047C27.8768 9.16795 26.5967 4.73432 24.2858 2.72882H24.2718C23.5745 2.08657 20.7718 0.0443243 14.5103 0.0215743C14.5103 0.0215743 14.0457 -0.00992568 13.2985 0.00319932V0.00407432ZM13.3755 1.98245C14.0133 1.97807 14.401 2.0052 14.401 2.0052C19.7008 2.0192 22.2305 3.61432 22.8272 4.15157C24.7732 5.81932 25.776 9.81632 25.0418 15.6911C24.3445 21.3873 20.1795 21.7478 19.4086 21.9937C19.0805 22.0987 16.0495 22.8459 12.231 22.6001C12.231 22.6001 9.3872 26.0318 8.4982 26.9156C8.35733 27.0704 8.19283 27.1159 8.08783 27.0932C7.93733 27.0564 7.89183 26.8701 7.90058 26.6146L7.9277 21.9254C2.35833 20.3854 2.68645 14.5746 2.74595 11.5392C2.8142 8.50382 3.38383 6.02057 5.07958 4.33882C7.36245 2.2747 11.4645 1.99645 13.3737 1.98245H13.3755ZM13.7955 5.01695C13.7496 5.01649 13.7041 5.0251 13.6616 5.0423C13.6192 5.05949 13.5805 5.08493 13.5479 5.11714C13.5153 5.14935 13.4893 5.1877 13.4716 5.22997C13.4539 5.27224 13.4447 5.31761 13.4446 5.36345C13.4446 5.55945 13.6038 5.71432 13.7955 5.71432C14.663 5.69782 15.5253 5.85324 16.3325 6.17162C17.1397 6.49 17.8759 6.96503 18.4986 7.56932C19.77 8.80395 20.3895 10.4629 20.4131 12.6321C20.4131 12.8237 20.568 12.9829 20.764 12.9829V12.9689C20.8563 12.9692 20.945 12.9329 21.0108 12.868C21.0765 12.8031 21.1139 12.7148 21.1148 12.6224C21.1573 11.6015 20.9917 10.5825 20.6282 9.62747C20.2646 8.67245 19.7106 7.80134 19 7.06707C17.6148 5.71345 15.8596 5.01607 13.7955 5.01607V5.01695ZM9.18333 5.81932C8.93566 5.78314 8.68306 5.83285 8.46758 5.9602H8.4492C7.94893 6.25345 7.49827 6.62408 7.11395 7.05832C6.79458 7.42757 6.62133 7.8012 6.57583 8.16082C6.5487 8.3752 6.56708 8.58957 6.63095 8.79432L6.6537 8.80832C7.01333 9.86532 7.4832 10.8821 8.0572 11.8393C8.7966 13.1842 9.70654 14.4279 10.7645 15.5397L10.796 15.5852L10.8458 15.6219L10.8773 15.6587L10.9141 15.6902C12.0299 16.7512 13.2767 17.6654 14.6241 18.4106C16.1641 19.2488 17.0986 19.6452 17.6595 19.8097V19.8184C17.824 19.8683 17.9736 19.8911 18.1241 19.8911C18.6021 19.8561 19.0546 19.662 19.4095 19.3398C19.8417 18.9554 20.2082 18.5029 20.4945 18.0002V17.9914C20.7631 17.4857 20.6721 17.0071 20.2845 16.6833C19.5082 16.0048 18.6687 15.4021 17.7776 14.8834C17.1808 14.5597 16.5745 14.7557 16.3286 15.0838L15.8045 15.7444C15.5358 16.0726 15.0476 16.0271 15.0476 16.0271L15.0336 16.0358C11.3927 15.1057 10.4215 11.4193 10.4215 11.4193C10.4215 11.4193 10.376 10.9179 10.7128 10.6624L11.3691 10.1339C11.6832 9.87845 11.902 9.27295 11.5651 8.67532C11.0501 7.78296 10.4487 6.94331 9.76958 6.16845C9.62112 5.98577 9.41284 5.86149 9.18158 5.81757L9.18333 5.81932ZM14.401 6.85882C13.9363 6.85882 13.9363 7.56057 14.4053 7.56057C14.9831 7.56994 15.5533 7.69308 16.0834 7.92294C16.6136 8.1528 17.0932 8.48488 17.495 8.9002C17.8614 9.30446 18.143 9.77816 18.3231 10.2932C18.5032 10.8083 18.578 11.3543 18.5432 11.8988C18.5448 11.991 18.5824 12.0788 18.648 12.1436C18.7136 12.2084 18.8019 12.2449 18.8941 12.2453L18.9081 12.2637C19.0009 12.263 19.0898 12.2258 19.1554 12.1602C19.2211 12.0945 19.2583 12.0057 19.259 11.9128C19.2905 10.5224 18.8582 9.35607 18.0103 8.42157C17.1581 7.48707 15.969 6.96295 14.4508 6.85882H14.401V6.85882ZM14.9758 8.74532C14.4972 8.73132 14.4788 9.44707 14.9531 9.46107C16.1063 9.52057 16.6663 10.1033 16.7398 11.3021C16.7414 11.3931 16.7786 11.4798 16.8433 11.5438C16.9081 11.6077 16.9953 11.6438 17.0863 11.6442H17.1003C17.1471 11.6422 17.193 11.6309 17.2354 11.6109C17.2778 11.591 17.3158 11.5628 17.3471 11.528C17.3785 11.4932 17.4026 11.4526 17.4181 11.4084C17.4335 11.3642 17.44 11.3173 17.4372 11.2706C17.355 9.70782 16.5027 8.82757 14.9898 8.7462H14.9758V8.74532Z" fill="white"/>
</svg>
