<svg width="30" height="29" viewBox="0 0 30 29" fill="none" xmlns="http://www.w3.org/2000/svg">
<path d="M26.8997 7.22576C22.6997 0.96659 14.1247 -0.894243 7.47474 2.99659C0.999736 6.88742 -1.10026 15.3458 3.09974 21.6049L3.44974 22.1124L2.04974 27.1874L7.29974 25.8341L7.82474 26.1724C10.0997 27.3566 12.5497 28.0333 14.9997 28.0333C17.6247 28.0333 20.2497 27.3566 22.5247 26.0033C28.9997 21.9433 30.9247 13.6541 26.8997 7.22576V7.22576ZM23.2247 20.2516C22.5247 21.2666 21.6497 21.9433 20.4247 22.1124C19.7247 22.1124 18.8497 22.4508 15.3497 21.0974C12.3747 19.7441 9.92474 17.5449 8.17474 15.0074C7.12474 13.8233 6.59974 12.3008 6.42474 10.7783C6.42474 9.42492 6.94974 8.24076 7.82474 7.39492C8.17474 7.05659 8.52474 6.88742 8.87474 6.88742H9.74974C10.0997 6.88742 10.4497 6.88742 10.6247 7.56409C10.9747 8.40992 11.8497 10.4399 11.8497 10.6091C12.0247 10.7783 12.0247 11.1166 11.8497 11.2858C12.0247 11.6241 11.8497 11.9624 11.6747 12.1316C11.4997 12.3008 11.3247 12.6391 11.1497 12.8083C10.7997 12.9774 10.6247 13.3158 10.7997 13.6541C11.4997 14.6691 12.3747 15.6841 13.2497 16.5299C14.2997 17.3758 15.3497 18.0524 16.5747 18.5599C16.9247 18.7291 17.2747 18.7291 17.4497 18.3908C17.6247 18.0524 18.4997 17.2066 18.8497 16.8683C19.1997 16.5299 19.3747 16.5299 19.7247 16.6991L22.5247 18.0524C22.8747 18.2216 23.2247 18.3908 23.3997 18.5599C23.5747 19.0674 23.5747 19.7441 23.2247 20.2516V20.2516Z" fill="white"/>
</svg>
