<svg width="27" height="22" viewBox="0 0 27 22" fill="none" xmlns="http://www.w3.org/2000/svg">
<path d="M25.5521 4.58663C25.2357 4.20687 24.8395 3.90144 24.3917 3.69204C23.944 3.48264 23.4556 3.3744 22.9613 3.375H4.77225L4.725 2.98012C4.6283 2.15934 4.23381 1.40257 3.6163 0.853288C2.9988 0.304001 2.20121 0.000384518 1.37475 0L1.125 0C0.826632 0 0.540483 0.118526 0.329505 0.329505C0.118526 0.540483 0 0.826631 0 1.125C0 1.42337 0.118526 1.70952 0.329505 1.9205C0.540483 2.13147 0.826632 2.25 1.125 2.25H1.37475C1.6503 2.25004 1.91625 2.3512 2.12217 2.5343C2.32808 2.71741 2.45964 2.96972 2.49188 3.24337L4.03988 16.4059C4.20058 17.7748 4.85829 19.037 5.88815 19.953C6.91801 20.869 8.24834 21.375 9.62663 21.375H21.375C21.6734 21.375 21.9595 21.2565 22.1705 21.0455C22.3815 20.8345 22.5 20.5484 22.5 20.25C22.5 19.9516 22.3815 19.6655 22.1705 19.4545C21.9595 19.2435 21.6734 19.125 21.375 19.125H9.62663C8.93031 19.123 8.25165 18.9058 7.68368 18.5029C7.11571 18.1001 6.68623 17.5315 6.45413 16.875H19.8641C21.183 16.8751 22.4599 16.4118 23.4718 15.566C24.4837 14.7202 25.1663 13.5458 25.4003 12.2479L26.2834 7.34963C26.3715 6.86363 26.3517 6.3642 26.2253 5.88672C26.099 5.40923 25.8691 4.96539 25.5521 4.58663Z" fill="#1E1E1E"/>
</svg>
