<svg width="32" height="32" viewBox="0 0 32 32" fill="none" xmlns="http://www.w3.org/2000/svg">
<path d="M16.0002 14.4C16.5276 14.4 17.0432 14.2436 17.4817 13.9505C17.9202 13.6575 18.262 13.241 18.4638 12.7538C18.6657 12.2665 18.7185 11.7303 18.6156 11.213C18.5127 10.6958 18.2587 10.2206 17.8858 9.84767C17.5128 9.47473 17.0377 9.22075 16.5204 9.11786C16.0031 9.01497 15.4669 9.06777 14.9797 9.26961C14.4924 9.47144 14.0759 9.81324 13.7829 10.2518C13.4899 10.6903 13.3335 11.2059 13.3335 11.7333C13.3335 12.4405 13.6144 13.1188 14.1145 13.6189C14.6146 14.119 15.2929 14.4 16.0002 14.4ZM15.0535 23.6133C15.1774 23.7383 15.3249 23.8374 15.4874 23.9051C15.6499 23.9728 15.8241 24.0077 16.0002 24.0077C16.1762 24.0077 16.3505 23.9728 16.5129 23.9051C16.6754 23.8374 16.8229 23.7383 16.9468 23.6133L22.4002 18.1466C23.6668 16.8807 24.5295 15.2675 24.8792 13.5112C25.2289 11.7549 25.0499 9.93436 24.3648 8.27981C23.6797 6.62525 22.5193 5.21103 21.0304 4.21603C19.5415 3.22103 17.7909 2.68994 16.0002 2.68994C14.2094 2.68994 12.4588 3.22103 10.9699 4.21603C9.48099 5.21103 8.32061 6.62525 7.63552 8.27981C6.95043 9.93436 6.77142 11.7549 7.12113 13.5112C7.47084 15.2675 8.33356 16.8807 9.60016 18.1466L15.0535 23.6133ZM9.64016 11.12C9.73126 10.1693 10.0335 9.25101 10.5249 8.43211C11.0162 7.6132 11.6842 6.91436 12.4802 6.38662C13.5258 5.70008 14.7493 5.3343 16.0002 5.3343C17.251 5.3343 18.4746 5.70008 19.5202 6.38662C20.3108 6.91255 20.975 7.60715 21.4651 8.42047C21.9552 9.23378 22.259 10.1456 22.3547 11.0903C22.4503 12.0351 22.3354 12.9893 22.0182 13.8843C21.701 14.7793 21.1894 15.5929 20.5202 16.2666L16.0002 20.7866L11.4802 16.2666C10.8102 15.5995 10.2974 14.7913 9.9791 13.901C9.66081 13.0107 9.54502 12.0606 9.64016 11.12V11.12ZM25.3335 26.6666H6.66683C6.31321 26.6666 5.97407 26.8071 5.72402 27.0571C5.47397 27.3072 5.3335 27.6463 5.3335 28C5.3335 28.3536 5.47397 28.6927 5.72402 28.9428C5.97407 29.1928 6.31321 29.3333 6.66683 29.3333H25.3335C25.6871 29.3333 26.0263 29.1928 26.2763 28.9428C26.5264 28.6927 26.6668 28.3536 26.6668 28C26.6668 27.6463 26.5264 27.3072 26.2763 27.0571C26.0263 26.8071 25.6871 26.6666 25.3335 26.6666Z" fill="white"/>
</svg>
