<svg width="22" height="22" viewBox="0 0 22 22" fill="none" xmlns="http://www.w3.org/2000/svg">
<g clip-path="url(#clip0_355_350)">
<path d="M11.0001 3.66667C12.0126 3.66667 12.8334 2.84586 12.8334 1.83333C12.8334 0.820811 12.0126 0 11.0001 0C9.98756 0 9.16675 0.820811 9.16675 1.83333C9.16675 2.84586 9.98756 3.66667 11.0001 3.66667Z" fill="white"/>
<path d="M11.0001 12.8332C12.0126 12.8332 12.8334 12.0124 12.8334 10.9998C12.8334 9.98732 12.0126 9.1665 11.0001 9.1665C9.98756 9.1665 9.16675 9.98732 9.16675 10.9998C9.16675 12.0124 9.98756 12.8332 11.0001 12.8332Z" fill="white"/>
<path d="M11.0001 22.0002C12.0126 22.0002 12.8334 21.1794 12.8334 20.1668C12.8334 19.1543 12.0126 18.3335 11.0001 18.3335C9.98756 18.3335 9.16675 19.1543 9.16675 20.1668C9.16675 21.1794 9.98756 22.0002 11.0001 22.0002Z" fill="white"/>
</g>
<defs>
<clipPath id="clip0_355_350">
<rect width="22" height="22" fill="white"/>
</clipPath>
</defs>
</svg>
