<svg width="30" height="22" viewBox="0 0 30 22" fill="none" xmlns="http://www.w3.org/2000/svg">
<path fill-rule="evenodd" clip-rule="evenodd" d="M0.125 15.1875C0.125 6.9 6.7125 0.3125 15 0.3125C23.2875 0.3125 29.875 6.9 29.875 15.1875H27.75C27.75 8.175 22.0125 2.4375 15 2.4375C7.9875 2.4375 2.25 8.175 2.25 15.1875H0.125ZM8.625 15.1875C8.625 11.575 11.3875 8.8125 15 8.8125C18.6125 8.8125 21.375 11.575 21.375 15.1875C21.375 18.8 18.6125 21.5625 15 21.5625C11.3875 21.5625 8.625 18.8 8.625 15.1875ZM10.75 15.1875C10.75 17.525 12.6625 19.4375 15 19.4375C17.3375 19.4375 19.25 17.525 19.25 15.1875C19.25 12.85 17.3375 10.9375 15 10.9375C12.6625 10.9375 10.75 12.85 10.75 15.1875Z" fill="black"/>
</svg>
