<svg width="29" height="25" viewBox="0 0 29 25" fill="none" xmlns="http://www.w3.org/2000/svg">
<path fill-rule="evenodd" clip-rule="evenodd" d="M14.5 0.15625C11.4062 0.15625 8.725 0.98125 6.45625 2.63125L8.10625 4.075C9.9625 2.8375 12.025 2.21875 14.5 2.21875C21.3062 2.21875 26.875 7.7875 26.875 14.5938H28.9375C28.9375 6.55 22.5438 0.15625 14.5 0.15625ZM0.0625 2.21875L3.3625 5.3125C1.3 7.7875 0.0625 11.0875 0.0625 14.5938H2.125C2.125 11.5 3.15625 8.81875 5.0125 6.75625L9.55 10.8812C8.725 11.9125 8.3125 13.15 8.3125 14.5938C8.3125 18.1 10.9937 20.7812 14.5 20.7812C16.15 20.7812 17.5938 20.1625 18.625 19.1313L24.8125 24.9062L26.2563 23.4625L1.50625 0.775L0.0625 2.21875ZM10.9938 12.325L16.975 17.8938C16.3562 18.3063 15.5312 18.7188 14.5 18.7188C12.2312 18.7188 10.375 16.8625 10.375 14.5938C10.375 13.7688 10.5813 12.9437 10.9938 12.325ZM20.6875 15.625L18.625 13.7688C18.2125 12.1188 16.7687 10.675 14.9125 10.4688L12.85 8.6125C13.4688 8.40625 13.8813 8.40625 14.5 8.40625C18.0063 8.40625 20.6875 11.0875 20.6875 14.5938V15.625Z" fill="black"/>
</svg>
