<svg width="22" height="22" viewBox="0 0 22 22" fill="none" xmlns="http://www.w3.org/2000/svg">
<path d="M22 1.83322V5.49988C22 5.743 21.9034 5.97616 21.7315 6.14806C21.5596 6.31997 21.3264 6.41655 21.0833 6.41655C20.8402 6.41655 20.607 6.31997 20.4351 6.14806C20.2632 5.97616 20.1666 5.743 20.1666 5.49988V3.1523L15.3083 7.98405C15.2259 8.08067 15.1243 8.15912 15.01 8.21442C14.8957 8.26972 14.7711 8.30066 14.6442 8.30529C14.5173 8.30991 14.3908 8.28812 14.2728 8.2413C14.1548 8.19447 14.0477 8.12362 13.9585 8.03326C13.8693 7.94289 13.7998 7.83497 13.7545 7.71635C13.7092 7.59772 13.689 7.47097 13.6953 7.34413C13.7015 7.2173 13.7341 7.09315 13.7908 6.97955C13.8476 6.86595 13.9273 6.76538 14.025 6.68422L18.8925 1.83322H16.5C16.2569 1.83322 16.0237 1.73664 15.8518 1.56473C15.6799 1.39282 15.5833 1.15966 15.5833 0.916548C15.5833 0.673433 15.6799 0.440275 15.8518 0.268367C16.0237 0.0964585 16.2569 -0.00011863 16.5 -0.00011863H20.1666C20.6529 -0.00011863 21.1192 0.193036 21.463 0.536852C21.8068 0.880669 22 1.34698 22 1.83322ZM18.9337 13.6179C18.4044 13.1143 17.7015 12.8339 16.971 12.8349C16.2404 12.8359 15.5383 13.1183 15.0104 13.6234L13.2632 15.0956C11.837 14.5054 10.5414 13.6393 9.4509 12.5469C8.36042 11.4546 7.49654 10.1575 6.90889 8.73022L8.37555 6.98855C8.88063 6.46068 9.163 5.75856 9.16402 5.02798C9.16504 4.2974 8.88465 3.5945 8.38105 3.06522C8.38105 3.06522 6.68339 0.860632 6.65589 0.831298C6.13246 0.305003 5.42308 0.00560727 4.68085 -0.00228149C3.93863 -0.0101702 3.22305 0.274081 2.68855 0.789132L1.6353 1.7058C-5.44137 9.23072 12.8186 27.499 20.3353 20.3141L21.1713 19.3526C21.7025 18.8199 22.0008 18.0983 22.0008 17.346C22.0008 16.5937 21.7025 15.8721 21.1713 15.3394C21.1411 15.3156 18.9337 13.6179 18.9337 13.6179Z" fill="#444444"/>
</svg>
