<svg width="30" height="30" viewBox="0 0 30 30" fill="none" xmlns="http://www.w3.org/2000/svg">
<g clip-path="url(#clip0_63_145)">
<path d="M8.75 30C10.1307 30 11.25 28.8807 11.25 27.5C11.25 26.1193 10.1307 25 8.75 25C7.36929 25 6.25 26.1193 6.25 27.5C6.25 28.8807 7.36929 30 8.75 30Z" fill="black"/>
<path d="M21.25 30C22.6307 30 23.75 28.8807 23.75 27.5C23.75 26.1193 22.6307 25 21.25 25C19.8693 25 18.75 26.1193 18.75 27.5C18.75 28.8807 19.8693 30 21.25 30Z" fill="black"/>
<path d="M28.5163 11.9788C27.3778 13.5253 25.6895 14.5761 23.7992 14.9149C21.909 15.2536 19.9608 14.8543 18.3562 13.7994C16.7516 12.7444 15.6127 11.1141 15.1744 9.24448C14.736 7.37483 15.0315 5.40825 16 3.75H5.3025L5.25 3.31C5.14228 2.39825 4.70382 1.55769 4.01773 0.94763C3.33164 0.337568 2.44559 0.000391046 1.5275 0L0 0V2.5H1.5275C1.83367 2.50004 2.12917 2.61245 2.35796 2.81589C2.58676 3.01934 2.73293 3.29969 2.76875 3.60375L4.75 20.4387C4.85744 21.3507 5.29577 22.1916 5.98189 22.8019C6.66801 23.4122 7.55422 23.7496 8.4725 23.75H25V21.25H8.4725C8.16614 21.2499 7.87048 21.1373 7.64166 20.9336C7.41283 20.7299 7.26679 20.4493 7.23125 20.145L7.0675 18.75H27.295L28.5163 11.9788Z" fill="black"/>
<path d="M26.25 6.25H23.75V3.75H21.25V6.25H18.75V8.75H21.25V11.25H23.75V8.75H26.25V6.25Z" fill="black"/>
</g>
<defs>
<clipPath id="clip0_63_145">
<rect width="30" height="30" fill="white"/>
</clipPath>
</defs>
</svg>
