<svg width="21" height="21" viewBox="0 0 21 21" fill="none" xmlns="http://www.w3.org/2000/svg">
<path d="M20.7438 19.5344L15.5209 14.3115C16.9442 12.5708 17.644 10.3496 17.4755 8.10737C17.3071 5.86516 16.2832 3.77347 14.6158 2.26496C12.9484 0.756454 10.7649 -0.0534618 8.51711 0.00274102C6.26928 0.0589439 4.12904 0.976965 2.53909 2.56692C0.949134 4.15687 0.0311118 6.29711 -0.025091 8.54494C-0.0812939 10.7928 0.728622 12.9762 2.23713 14.6436C3.74564 16.3111 5.83733 17.3349 8.07954 17.5034C10.3218 17.6718 12.5429 16.9721 14.2837 15.5488L19.5066 20.7716C19.6716 20.931 19.8926 21.0192 20.122 21.0172C20.3515 21.0152 20.5709 20.9232 20.7331 20.761C20.8954 20.5987 20.9874 20.3793 20.9894 20.1499C20.9914 19.9204 20.9032 19.6994 20.7438 19.5344ZM8.75018 15.778C7.36571 15.778 6.01233 15.3675 4.86118 14.5983C3.71004 13.8291 2.81283 12.7359 2.28302 11.4568C1.75321 10.1777 1.61458 8.77024 1.88468 7.41238C2.15478 6.05451 2.82146 4.80723 3.80043 3.82826C4.7794 2.84929 6.02668 2.18261 7.38454 1.91251C8.74241 1.64241 10.1499 1.78104 11.429 2.31085C12.708 2.84066 13.8013 3.73787 14.5705 4.88902C15.3396 6.04016 15.7502 7.39354 15.7502 8.77801C15.7481 10.6339 15.0099 12.4132 13.6976 13.7255C12.3853 15.0378 10.6061 15.7759 8.75018 15.778Z" fill="white"/>
</svg>
