<svg width="21" height="21" viewBox="0 0 21 21" fill="none" xmlns="http://www.w3.org/2000/svg">
<g clip-path="url(#clip0_318_4292)">
<path d="M18.375 5.25H15.75C15.75 3.85761 15.1969 2.52226 14.2123 1.53769C13.2277 0.553123 11.8924 0 10.5 0C9.10761 0 7.77226 0.553123 6.78769 1.53769C5.80312 2.52226 5.25 3.85761 5.25 5.25H2.625C1.92881 5.25 1.26113 5.52656 0.768845 6.01884C0.276562 6.51113 0 7.17881 0 7.875L0 16.625C0.00138938 17.7849 0.462772 18.8969 1.28294 19.7171C2.10311 20.5372 3.2151 20.9986 4.375 21H14.6003C13.992 20.6046 13.4722 20.0874 13.0738 19.4811C12.6754 18.8747 12.407 18.1924 12.2856 17.4771C12.1641 16.7618 12.1922 16.0292 12.3681 15.3253C12.544 14.6214 12.8639 13.9617 13.3076 13.3876C13.7513 12.8136 14.3091 12.3378 14.9459 11.9901C15.5827 11.6425 16.2847 11.4306 17.0074 11.3679C17.7302 11.3051 18.4582 11.3929 19.1454 11.6256C19.8326 11.8583 20.464 12.2309 21 12.7199V7.875C21 7.17881 20.7234 6.51113 20.2312 6.01884C19.7389 5.52656 19.0712 5.25 18.375 5.25ZM7 5.25C7 4.32174 7.36875 3.4315 8.02513 2.77513C8.6815 2.11875 9.57174 1.75 10.5 1.75C11.4283 1.75 12.3185 2.11875 12.9749 2.77513C13.6313 3.4315 14 4.32174 14 5.25H7Z" fill="white"/>
<path d="M20.125 15.75H18.375V14C18.375 13.7679 18.2828 13.5454 18.1187 13.3813C17.9546 13.2172 17.7321 13.125 17.5 13.125C17.2679 13.125 17.0454 13.2172 16.8813 13.3813C16.7172 13.5454 16.625 13.7679 16.625 14V15.75H14.875C14.6429 15.75 14.4204 15.8422 14.2563 16.0063C14.0922 16.1704 14 16.3929 14 16.625C14 16.8571 14.0922 17.0796 14.2563 17.2437C14.4204 17.4078 14.6429 17.5 14.875 17.5H16.625V19.25C16.625 19.4821 16.7172 19.7046 16.8813 19.8687C17.0454 20.0328 17.2679 20.125 17.5 20.125C17.7321 20.125 17.9546 20.0328 18.1187 19.8687C18.2828 19.7046 18.375 19.4821 18.375 19.25V17.5H20.125C20.3571 17.5 20.5796 17.4078 20.7437 17.2437C20.9078 17.0796 21 16.8571 21 16.625C21 16.3929 20.9078 16.1704 20.7437 16.0063C20.5796 15.8422 20.3571 15.75 20.125 15.75Z" fill="white"/>
</g>
<defs>
<clipPath id="clip0_318_4292">
<rect width="21" height="21" fill="white"/>
</clipPath>
</defs>
</svg>
